<svg id="Capa_1" enable-background="new 0 0 512 512" height="512" viewBox="0 0 512 512" width="512" xmlns="http://www.w3.org/2000/svg"><g><path d="m449.604 499.727c0 6.778-5.495 12.273-12.273 12.273h-362.662c-6.778 0-12.273-5.495-12.273-12.273v-430.608c0-6.778 5.495-12.273 12.273-12.273h362.663c6.778 0 12.273 5.495 12.273 12.273v430.608z" fill="#e7a561"/><path d="m437.331 56.847h-22.639c6.778 0 12.273 5.495 12.273 12.273v430.608c0 6.778-5.495 12.273-12.273 12.273h22.639c6.778 0 12.273-5.495 12.273-12.273v-430.609c0-6.778-5.494-12.272-12.273-12.272z" fill="#e4936b"/><path d="m110.016 480.552c-6.386 0-11.564-5.177-11.564-11.564v-369.129c0-6.386 5.177-11.564 11.564-11.564h291.969c6.386 0 11.564 5.177 11.564 11.564v369.129c0 6.386-5.177 11.564-11.564 11.564z" fill="#f9f6f9"/><path d="m401.985 88.295h-19.645c6.386 0 11.564 5.177 11.564 11.563v369.13c0 6.386-5.177 11.563-11.564 11.563h19.645c6.386 0 11.563-5.177 11.563-11.563v-369.129c0-6.387-5.177-11.564-11.563-11.564z" fill="#dddaec"/><path d="m286.825 30.825c0-17.024-13.801-30.825-30.825-30.825-17.024 0-30.825 13.801-30.825 30.825 0 3.064-2.484 5.547-5.547 5.547h-36.246c-8.527 0-15.44 6.913-15.44 15.44v39.586c0 8.527 6.913 15.44 15.44 15.44h145.236c8.527 0 15.44-6.913 15.44-15.44v-39.585c0-8.527-6.913-15.44-15.44-15.44h-36.246c-3.063-.001-5.547-2.484-5.547-5.548z" fill="#26457d"/><g fill="#21386b"><path d="m328.618 36.372h-22.497c8.527 0 15.44 6.913 15.44 15.44v39.586c0 8.527-6.913 15.44-15.44 15.44h22.497c8.527 0 15.44-6.913 15.44-15.44v-39.586c0-8.527-6.912-15.44-15.44-15.44z"/><path d="m264.328 30.825c0 3.064 2.484 5.547 5.547 5.547h22.497c-3.063 0-5.547-2.484-5.547-5.547 0-17.024-13.801-30.825-30.825-30.825-3.971 0-7.763.759-11.249 2.127 11.459 4.495 19.577 15.645 19.577 28.698z"/></g><g><path d="m270.883 64.573h-29.766c-4.268 0-7.726-3.459-7.726-7.726s3.459-7.726 7.726-7.726h29.766c4.268 0 7.726 3.459 7.726 7.726s-3.458 7.726-7.726 7.726z" fill="#21386b"/></g><path d="m372.133 239.505c0 13.196-10.697 23.893-23.893 23.893h-42.44c-13.196 0-23.893-10.697-23.893-23.893v-63.839c0-.538-.183-1.059-.52-1.479l-17-21.172c-.569-.708-.681-1.68-.288-2.5.393-.819 1.221-1.34 2.129-1.34h103.544c1.304 0 2.362 1.057 2.362 2.361v87.969z" fill="#d3effb"/><path d="m353.691 149.175v90.33c0 13.196-10.697 23.893-23.893 23.893h18.442c13.196 0 23.893-10.697 23.893-23.893v-87.968c0-1.304-1.057-2.361-2.361-2.361h-16.081z" fill="#bed8fb"/><g><path d="m341.417 189.767h-5.482c-4.268 0-7.726-3.459-7.726-7.726s3.459-7.726 7.726-7.726h5.482c4.268 0 7.726 3.459 7.726 7.726s-3.458 7.726-7.726 7.726z" fill="#21386b"/></g><g><path d="m341.417 214.013h-5.482c-4.268 0-7.726-3.459-7.726-7.726s3.459-7.726 7.726-7.726h5.482c4.268 0 7.726 3.459 7.726 7.726s-3.458 7.726-7.726 7.726z" fill="#21386b"/></g><g><path d="m341.417 238.26h-5.482c-4.268 0-7.726-3.459-7.726-7.726 0-4.268 3.459-7.726 7.726-7.726h5.482c4.268 0 7.726 3.459 7.726 7.726s-3.458 7.726-7.726 7.726z" fill="#21386b"/></g><g><g><path d="m220.093 163.097h-73.545c-4.268 0-7.726-3.459-7.726-7.726 0-4.268 3.459-7.726 7.726-7.726h73.545c4.268 0 7.726 3.459 7.726 7.726.001 4.267-3.458 7.726-7.726 7.726z" fill="#21386b"/></g><g><path d="m220.093 197.041h-73.545c-4.268 0-7.726-3.459-7.726-7.726 0-4.268 3.459-7.726 7.726-7.726h73.545c4.268 0 7.726 3.459 7.726 7.726.001 4.267-3.458 7.726-7.726 7.726z" fill="#21386b"/></g><g><path d="m220.093 230.985h-73.545c-4.268 0-7.726-3.459-7.726-7.726s3.459-7.726 7.726-7.726h73.545c4.268 0 7.726 3.459 7.726 7.726s-3.458 7.726-7.726 7.726z" fill="#21386b"/></g><g><path d="m220.093 264.929h-73.545c-4.268 0-7.726-3.459-7.726-7.726 0-4.268 3.459-7.726 7.726-7.726h73.545c4.268 0 7.726 3.459 7.726 7.726.001 4.267-3.458 7.726-7.726 7.726z" fill="#21386b"/></g></g><g><g><path d="m208.881 430.539c-1.334 0-2.668-.345-3.863-1.035l-46.159-26.65c-2.39-1.38-3.863-3.931-3.863-6.691v-53.301c0-2.761 1.473-5.311 3.863-6.691l46.159-26.65c2.39-1.38 5.336-1.38 7.726 0l46.16 26.65c2.39 1.38 3.863 3.931 3.863 6.691v53.301c0 2.761-1.473 5.311-3.863 6.691l-46.16 26.65c-1.195.69-2.529 1.035-3.863 1.035zm-38.433-38.837 38.433 22.189 38.434-22.189v-44.379l-38.434-22.189-38.433 22.189zm84.593 4.461h.01z" fill="#78d0b1"/></g><g><path d="m208.881 323.939c-4.268 0-7.726-3.459-7.726-7.726v-17.379c0-4.268 3.459-7.726 7.726-7.726s7.726 3.459 7.726 7.726v17.379c0 4.267-3.458 7.726-7.726 7.726z" fill="#78d0b1"/></g><g><path d="m208.881 446.574c-4.268 0-7.726-3.459-7.726-7.726v-16.035c0-4.268 3.459-7.726 7.726-7.726s7.726 3.459 7.726 7.726v16.035c0 4.268-3.458 7.726-7.726 7.726z" fill="#78d0b1"/></g><g><path d="m145.563 413.404c-1.45 0-2.897-.407-4.163-1.217l-14.875-9.515c-3.595-2.3-4.645-7.077-2.346-10.672 2.301-3.596 7.079-4.644 10.672-2.346l10.995 7.033 13.13-7.281c3.727-2.072 8.435-.723 10.503 3.01 2.069 3.731.722 8.435-3.01 10.503l-17.159 9.515c-1.167.648-2.458.97-3.747.97z" fill="#78d0b1"/></g><g><path d="m145.563 430.539c-4.268 0-7.726-3.459-7.726-7.726v-17.135c0-4.268 3.459-7.726 7.726-7.726s7.726 3.459 7.726 7.726v17.135c0 4.267-3.458 7.726-7.726 7.726z" fill="#78d0b1"/></g><g><path d="m255.048 350.589c-2.679 0-5.283-1.394-6.71-3.885-2.122-3.702-.841-8.424 2.861-10.545l12.962-7.429c3.702-2.122 8.424-.842 10.545 2.861 2.122 3.702.841 8.424-2.861 10.545l-12.962 7.429c-1.211.694-2.532 1.024-3.835 1.024z" fill="#78d0b1"/></g></g><g><g><path d="m372.133 327.471h-59.985c-4.268 0-7.726-3.459-7.726-7.726s3.459-7.726 7.726-7.726h59.985c4.268 0 7.726 3.459 7.726 7.726s-3.458 7.726-7.726 7.726z" fill="#21386b"/></g><g><path d="m372.133 360.201h-59.985c-4.268 0-7.726-3.459-7.726-7.726s3.459-7.726 7.726-7.726h59.985c4.268 0 7.726 3.459 7.726 7.726s-3.458 7.726-7.726 7.726z" fill="#21386b"/></g><g><path d="m372.133 392.932h-59.985c-4.268 0-7.726-3.459-7.726-7.726s3.459-7.726 7.726-7.726h59.985c4.268 0 7.726 3.459 7.726 7.726s-3.458 7.726-7.726 7.726z" fill="#21386b"/></g><g><path d="m372.133 425.662h-59.985c-4.268 0-7.726-3.459-7.726-7.726s3.459-7.726 7.726-7.726h59.985c4.268 0 7.726 3.459 7.726 7.726s-3.458 7.726-7.726 7.726z" fill="#21386b"/></g></g></g></svg>