<svg id="Capa_1" enable-background="new 0 0 512 512" height="512" viewBox="0 0 512 512" width="512" xmlns="http://www.w3.org/2000/svg"><g><g><g><path d="m117.293 216.882h-20.228c-4.204 0-7.611-3.407-7.611-7.611s3.407-7.611 7.611-7.611h20.228c4.204 0 7.612 3.407 7.612 7.611s-3.408 7.611-7.612 7.611z" fill="#365e7d"/></g><g><path d="m267.464 216.882h-20.227c-4.204 0-7.611-3.407-7.611-7.611s3.407-7.611 7.611-7.611h20.227c4.204 0 7.612 3.407 7.612 7.611s-3.408 7.611-7.612 7.611z" fill="#365e7d"/></g></g><g><path d="m147.639 512h-39.269c-23.289 0-42.237-18.947-42.237-42.237v-.304c0-23.29 18.947-42.238 42.237-42.238h66.283v-48.851c0-4.204 3.407-7.611 7.611-7.611s7.611 3.407 7.611 7.611v48.851h170.216c23.737 0 43.049-19.311 43.049-43.049v-115.37c0-4.204 3.407-7.611 7.611-7.611s7.612 3.407 7.612 7.611v115.37c0 32.131-26.141 58.272-58.272 58.272h-170.214v27.319c0 23.289-18.948 42.237-42.238 42.237zm-39.269-69.556c-14.896 0-27.014 12.119-27.014 27.015v.304c0 14.896 12.118 27.014 27.014 27.014h39.269c14.896 0 27.015-12.118 27.015-27.014v-27.319z" fill="#407093"/></g><g><path d="m78.112 160.878c-4.204 0-7.611-3.407-7.611-7.611v-126.109c0-10.952 8.91-19.862 19.862-19.862h28.682c4.204 0 7.611 3.407 7.611 7.611s-3.407 7.611-7.611 7.611h-28.682c-2.558 0-4.639 2.081-4.639 4.639v126.108c0 4.205-3.407 7.613-7.612 7.613z" fill="#365e7d"/></g><g><path d="m286.418 160.878c-4.204 0-7.612-3.407-7.612-7.611v-126.109c0-2.558-2.081-4.639-4.64-4.639h-28.682c-4.204 0-7.611-3.407-7.611-7.611s3.407-7.611 7.611-7.611h28.682c10.952 0 19.863 8.91 19.863 19.862v126.108c0 4.203-3.407 7.611-7.611 7.611z" fill="#365e7d"/></g><path d="m124.134 29.814h-11.724c-1.701 0-3.081-1.379-3.081-3.081v-23.652c0-1.701 1.379-3.081 3.081-3.081h11.723c7.376 0 13.356 5.98 13.356 13.356v3.103c.001 7.376-5.979 13.355-13.355 13.355z" fill="#407093"/><path d="m240.396 29.814h11.723c1.701 0 3.081-1.379 3.081-3.081v-23.652c0-1.702-1.38-3.081-3.081-3.081h-11.723c-7.376 0-13.356 5.98-13.356 13.356v3.103c0 7.376 5.979 13.355 13.356 13.355z" fill="#407093"/><g><path d="m182.265 388.518c-14.013 0-25.372-11.36-25.372-25.372v-33.712c0-14.013 11.359-25.372 25.372-25.372s25.372 11.359 25.372 25.372v33.712c-.001 14.012-11.359 25.372-25.372 25.372z" fill="#365e7d"/></g><g><path d="m182.264 348.717c-70.596 0-128.03-57.434-128.03-128.03v-51.916c0-14.013 11.36-25.372 25.372-25.372s25.372 11.359 25.372 25.372v51.916c0 42.615 34.671 77.286 77.286 77.286 42.616 0 77.287-34.671 77.287-77.286v-51.916c0-14.013 11.36-25.372 25.372-25.372 14.013 0 25.372 11.359 25.372 25.372v51.916c0 70.596-57.434 128.03-128.031 128.03z" fill="#407093"/></g><g fill="#365e7d"><path d="m83.559 168.772v51.916c0 42.615 34.671 77.286 77.286 77.286 3.635 0 7.206-.271 10.709-.759-37.563-5.232-66.577-37.547-66.577-76.527v-51.916c0-14.013-11.36-25.372-25.372-25.372-3.828 0-7.455.853-10.709 2.371 8.66 4.038 14.663 12.816 14.663 23.001z"/><path d="m284.923 143.4c-3.828 0-7.455.853-10.709 2.371 8.659 4.038 14.662 12.816 14.662 23.001v51.916c0 66.989-51.718 122.119-117.321 127.578 3.532.294 7.102.452 10.709.452 70.597 0 128.031-57.434 128.031-128.03v-51.916c0-14.013-11.359-25.372-25.372-25.372z"/></g><circle cx="410.753" cy="231.939" fill="#bed8fb" r="47.012"/><path d="m410.753 184.926c-3.479 0-6.866.389-10.131 1.107 21.092 4.635 36.882 23.421 36.882 45.906s-15.789 41.271-36.882 45.906c3.264.717 6.651 1.107 10.131 1.107 25.964 0 47.012-21.048 47.012-47.012 0-25.965-21.048-47.014-47.012-47.014z" fill="#9dc6fb"/><g><path d="m410.753 243.089c-4.204 0-7.611-3.407-7.611-7.611v-7.078c0-4.204 3.407-7.611 7.611-7.611s7.612 3.407 7.612 7.611v7.077c-.001 4.204-3.408 7.612-7.612 7.612z" fill="#9dc6fb"/></g></g></svg>