<svg id="Layer_1" enable-background="new 0 0 512 512" height="512" viewBox="0 0 512 512" width="512" xmlns="http://www.w3.org/2000/svg"><g><g fill="#fed2a4"><path d="m452.109 120.128-1 2.41v288.858l1 2.476c30.7-40.926 48.891-91.774 48.891-146.872s-18.191-105.946-48.891-146.872z"/><path d="m60.891 123.058-1-2.931c-30.7 40.927-48.891 91.774-48.891 146.873s18.191 105.946 48.891 146.872l1-2.931z"/></g><g><g><path d="m438.918 0h-365.836c-7.285 0-13.191 5.906-13.191 13.191v36.056l3.268.879h385.681l3.268-.879v-36.056c.001-7.285-5.905-13.191-13.19-13.191z" fill="#0593fc"/></g><path d="m101.783 13.191c0-7.285 5.905-13.191 13.191-13.191h-41.892c-7.285 0-13.191 5.906-13.191 13.191v36.056l3.268.879h41.891l-3.268-.879v-36.056z" fill="#0182fc"/><g><path d="m59.891 413.872c44.693 59.579 115.898 98.128 196.109 98.128s151.417-38.549 196.109-98.128v-364.625h-392.218z" fill="#eaf6ff"/></g><path d="m101.783 49.247h-41.892v364.625c12.124 16.163 26.214 30.762 41.891 43.479v-408.104z" fill="#d8ecfe"/><g><g><g><g><circle cx="87.085" cy="25.558" fill="#22b27f" r="7.5"/></g><g><circle cx="111.085" cy="25.558" fill="#fe9901" r="7.5"/></g><g><circle cx="135.085" cy="25.558" fill="#fe646f" r="7.5"/></g></g></g><g><g><path d="m423.993 33.058h-27c-4.142 0-7.5-3.358-7.5-7.5s3.358-7.5 7.5-7.5h27c4.142 0 7.5 3.358 7.5 7.5s-3.358 7.5-7.5 7.5z" fill="#60b7ff"/></g></g></g><g><g><path d="m319.883 469.431h-127.766c-5.523 0-10-4.477-10-10v-27.431c0-5.523 4.477-10 10-10h127.766c5.523 0 10 4.477 10 10v27.431c0 5.523-4.477 10-10 10z" fill="#22b27f"/></g><path d="m224 459.431v-27.431c0-5.523 4.477-10 10-10h-41.883c-5.523 0-10 4.477-10 10v27.431c0 5.523 4.477 10 10 10h41.883c-5.523 0-10-4.477-10-10z" fill="#09a76d"/><g><path d="m295.678 453.215h-79.355c-4.142 0-7.5-3.358-7.5-7.5s3.358-7.5 7.5-7.5h79.355c4.142 0 7.5 3.358 7.5 7.5s-3.358 7.5-7.5 7.5z" fill="#57be92"/></g></g><g><g><g><path d="m406.419 202.697h-98.079c-4.142 0-7.5-3.358-7.5-7.5s3.358-7.5 7.5-7.5h98.079c4.142 0 7.5 3.358 7.5 7.5s-3.358 7.5-7.5 7.5z" fill="#8ac9fe"/></g></g><g><g><path d="m406.419 234.858h-98.079c-4.142 0-7.5-3.358-7.5-7.5s3.358-7.5 7.5-7.5h98.079c4.142 0 7.5 3.358 7.5 7.5s-3.358 7.5-7.5 7.5z" fill="#8ac9fe"/></g></g><g><g><path d="m406.419 267.021h-98.079c-4.142 0-7.5-3.358-7.5-7.5s3.358-7.5 7.5-7.5h98.079c4.142 0 7.5 3.358 7.5 7.5s-3.358 7.5-7.5 7.5z" fill="#8ac9fe"/></g></g><g><g><path d="m281.341 202.697h-55.979c-4.142 0-7.5-3.358-7.5-7.5s3.358-7.5 7.5-7.5h55.979c4.142 0 7.5 3.358 7.5 7.5s-3.358 7.5-7.5 7.5z" fill="#b3dafe"/></g></g><g><g><path d="m281.341 234.858h-55.979c-4.142 0-7.5-3.358-7.5-7.5s3.358-7.5 7.5-7.5h55.979c4.142 0 7.5 3.358 7.5 7.5s-3.358 7.5-7.5 7.5z" fill="#b3dafe"/></g></g><g><g><path d="m281.341 267.021h-55.979c-4.142 0-7.5-3.358-7.5-7.5s3.358-7.5 7.5-7.5h55.979c4.142 0 7.5 3.358 7.5 7.5s-3.358 7.5-7.5 7.5z" fill="#b3dafe"/></g></g><g><g><path d="m406.419 305.5h-181.057c-4.142 0-7.5-3.358-7.5-7.5s3.358-7.5 7.5-7.5h181.057c4.142 0 7.5 3.358 7.5 7.5s-3.358 7.5-7.5 7.5z" fill="#60b7ff"/></g></g><g><g><path d="m406.419 337.662h-181.057c-4.142 0-7.5-3.358-7.5-7.5s3.358-7.5 7.5-7.5h181.057c4.142 0 7.5 3.358 7.5 7.5s-3.358 7.5-7.5 7.5z" fill="#60b7ff"/></g></g><g><g><path d="m190.078 218.194-22.57-13.031c-5.624 4.257-12.623 6.787-20.203 6.787-7.581 0-14.58-2.531-20.204-6.787l-22.57 13.031c-2.982 1.722-4.819 4.903-4.819 8.346v30.842c0 5.323 4.315 9.638 9.638 9.638h75.909c5.323 0 9.638-4.315 9.638-9.638v-30.842c-.001-3.443-1.838-6.624-4.819-8.346z" fill="#26a6fe"/></g><g><path d="m132.55 257.383v-30.842c0-3.443 1.837-6.625 4.819-8.346l10.854-6.267c-.306.008-.611.023-.919.023-7.581 0-14.58-2.531-20.204-6.787l-22.57 13.031c-2.982 1.722-4.819 4.903-4.819 8.346v30.842c0 5.323 4.315 9.638 9.638 9.638h32.838c-5.322 0-9.637-4.315-9.637-9.638z" fill="#0593fc"/></g><g><circle cx="147.304" cy="178.405" fill="#0593fc" r="34.602"/></g><g><path d="m140.478 178.405c0-14.169 8.521-26.342 20.714-31.693-4.252-1.866-8.947-2.909-13.888-2.909-19.11 0-34.602 15.492-34.602 34.602s15.492 34.602 34.602 34.602c4.941 0 9.636-1.043 13.888-2.909-12.193-5.351-20.714-17.524-20.714-31.693z" fill="#0182fc"/></g></g><g><g><g><path d="m124.07 127.933h-20.989c-2.761 0-5-2.239-5-5v-20.989c0-2.761 2.239-5 5-5h20.989c2.761 0 5 2.239 5 5v20.989c0 2.762-2.239 5-5 5z" fill="#22b27f"/></g></g><path d="m111 122.933v-20.989c0-2.761 2.239-5 5-5h-12.919c-2.761 0-5 2.239-5 5v20.989c0 2.761 2.239 5 5 5h12.919c-2.761 0-5-2.238-5-5z" fill="#09a76d"/><g><g><path d="m163.33 127.933h-20.989c-2.761 0-5-2.239-5-5v-20.989c0-2.761 2.239-5 5-5h20.989c2.761 0 5 2.239 5 5v20.989c0 2.762-2.239 5-5 5z" fill="#22b27f"/></g></g><path d="m150.26 122.933v-20.989c0-2.761 2.239-5 5-5h-12.919c-2.761 0-5 2.239-5 5v20.989c0 2.761 2.239 5 5 5h12.919c-2.761 0-5-2.238-5-5z" fill="#09a76d"/><g><g><path d="m202.59 127.933h-20.989c-2.761 0-5-2.239-5-5v-20.989c0-2.761 2.239-5 5-5h20.989c2.761 0 5 2.239 5 5v20.989c0 2.762-2.239 5-5 5z" fill="#8ac9fe"/></g></g><path d="m189.52 122.933v-20.989c0-2.761 2.239-5 5-5h-12.919c-2.761 0-5 2.239-5 5v20.989c0 2.761 2.239 5 5 5h12.919c-2.761 0-5-2.238-5-5z" fill="#60b7ff"/></g><g><g><path d="m410.522 97.75h-19.319c-1.876 0-3.397-1.521-3.397-3.397v-19.319c0-1.876-1.521-3.397-3.397-3.397h-22.583c-1.876 0-3.397 1.521-3.397 3.397v19.319c0 1.876-1.521 3.397-3.397 3.397h-19.319c-1.876 0-3.397 1.521-3.397 3.397v22.583c0 1.876 1.521 3.397 3.397 3.397h19.319c1.876 0 3.397 1.521 3.397 3.397v19.319c0 1.876 1.521 3.397 3.397 3.397h22.583c1.876 0 3.397-1.521 3.397-3.397v-19.319c0-1.876 1.521-3.397 3.397-3.397h19.319c1.876 0 3.397-1.521 3.397-3.397v-22.583c0-1.876-1.521-3.397-3.397-3.397z" fill="#22b27f"/></g></g><g><path d="m377.511 137.604c-1.876 0-3.397-1.521-3.397-3.397v-19.319c0-1.876-1.521-3.397-3.397-3.397h-19.319c-1.876 0-3.397-1.521-3.397-3.397v-10.344h-12.288c-1.876 0-3.397 1.521-3.397 3.397v22.583c0 1.876 1.521 3.397 3.397 3.397h19.319c1.876 0 3.397 1.521 3.397 3.397v19.319c0 1.876 1.521 3.397 3.397 3.397h22.583c1.876 0 3.397-1.521 3.397-3.397v-12.239z" fill="#09a76d"/></g><g><g><circle cx="105.581" cy="300.548" fill="#fe646f" r="7.5"/></g><g><circle cx="132.309" cy="300.548" fill="#b3dafe" r="7.5"/></g><g><circle cx="159.037" cy="300.548" fill="#b3dafe" r="7.5"/></g><g><circle cx="185.765" cy="300.548" fill="#fe646f" r="7.5"/></g></g><g><g><circle cx="105.581" cy="327" fill="#8ac9fe" r="7.5"/></g><g><circle cx="132.309" cy="327" fill="#60b7ff" r="7.5"/></g><g><circle cx="159.037" cy="327" fill="#fe646f" r="7.5"/></g><g><circle cx="185.765" cy="327" fill="#8ac9fe" r="7.5"/></g></g></g><g><path d="m407.039 387.5h-302.078c-4.142 0-7.5-3.358-7.5-7.5s3.358-7.5 7.5-7.5h302.079c4.142 0 7.5 3.358 7.5 7.5s-3.359 7.5-7.501 7.5z" fill="#b3dafe"/></g></g></g></svg>