<svg height="512" viewBox="0 0 38 58" width="512" xmlns="http://www.w3.org/2000/svg"><g id="Page-1" fill="none" fill-rule="evenodd"><g id="004---Pregnant-Woman" fill-rule="nonzero" transform="translate(-1)"><path id="Shape" d="m8.19 51.48c.21711935-.6321605.48118836-1.2472073.79-1.84-.03-.01-.05-.03-.08-.04-4.52-2.56-7.9-7.17-7.9-14.6-.22566764-5.3632583 2.45757859-10.4316123 7.02-13.26l5.98-.74 15.5 8.83c-.1619191 2.8041869.3525292 5.6062152 1.5 8.17 3.241 6.482 5.169 15.589 5.784 18.812.0561122.2931443-.0216505.5960297-.212038.8258877-.1903875.2298581-.4734962.3626589-.771962.3621123h-27.749c-.27798908.0007016-.54372482-.1143445-.733443-.3175327-.18971817-.2031882-.28629517-.476179-.266557-.7534673.14176948-1.8580401.52464889-3.6897432 1.139-5.449z" fill="#2fa8cc"/><path id="Shape" d="m22.43 52.72c.0302975.2627752-.0456076.526768-.2108495.7333204-.1652419.2065523-.4061338.3385557-.6691505.3666796-.9193784.1078173-1.844322.1612436-2.77.16-3.6804766.0375427-7.3148834-.8204381-10.59-2.5.21711935-.6321605.48118836-1.2472073.79-1.84 3.7999279 1.9533681 8.0991434 2.7198408 12.34 2.2.2639721-.0309441.5294037.0444686.7376729.209583.2082693.1651143.3422411.4063457.3723271.670417z" fill="#2980ba"/><path id="Shape" d="m37 31s-13-1-24-7c-1.3692257-1.2505617-3.14603539-1.9612856-5-2 .07185246-1.2891805.83762281-2.437836 2-3 1.08406-.5047895 2.3069704-.6281378 3.47-.35-5.59-1.87-6.08-8.8-1.47-10.65.6515242-.25891016 1.2747835-.58394325 1.86-.97 2.2801619-1.59139076 4.1874608-3.65905299 5.59-6.06.3646126-.60150128 1.0166185-.96920227 1.72-.97h11.78c3.03 0 5.11 3.37 5.05 6 0 5 1 17-1 25z" fill="#fdd7ad"/><path id="Shape" d="m33 23.938c-.2164761.0006557-.4272125-.0695898-.6-.2-2.37-1.777-5.6-2.018-8.45-2.231-1.4410235-.0429317-2.872372-.250957-4.266-.62-.3394023-.1130745-.5926985-.3986287-.6644742-.749097-.0717757-.3504684.0488734-.7126063.3165-.9500001.2676266-.2373937.6415719-.3139775.9809742-.2009029 1.2382462.3093981 2.5062383.4844092 3.782.522 2.969.222 6.663.5 9.5 2.627.3443443.2582582.4847973.7078856.3486833 1.1162278-.136114.4083421-.5182529.6837722-.9486833.6837722z" fill="#f9c795"/><path id="Shape" d="m13 34.16c.697079-1.2935003 2.0312581-2.1168794 3.5-2.16.9681065.0176336 1.8875263.4277486 2.5474398 1.1363072.6599136.7085587 1.0037108 1.6547777.9525602 2.6216928 0 2.818-2.849 4.684-7 8.242-4.151-3.558-7-5.424-7-8.242-.05115056-.9669151.29264661-1.9131341.95256018-2.6216928.65991356-.7085586 1.57933327-1.1186736 2.54743982-1.1363072 1.4687419.0431206 2.802921.8664997 3.5 2.16z" fill="#ff5364"/><path id="Shape" d="m30.05 22.51c-3.6-1.16-7.73-.74-10.05-1.51-2.26-.76-4.47-1.95-6.53-2.35-5.59-1.87-6.08-8.8-1.47-10.65.6515242-.25891016 1.2747835-.58394325 1.86-.97 2.3247484.64684481 4.7269411.97319312 7.14.97 6 0 6-8 6-8h4c-2.6 10.41-1.82 18.28-.95 22.51z" fill="#2fa8cc"/><circle id="Oval" cx="9.5" cy="35" fill="#fb7b76" r="2"/></g></g></svg>